:SAMPLES-PER-SECOND 30
:FULLY-SPECIFIED
:DEGREES
149
root  0.9558711465 37.05933338 4.611044606 3.225006104 -45.05000305 -6.192993164
lowerback  10.87090015 -1.575189948 -2.723180056
upperback  2.020190001 -2.389499903 1.006109953
thorax  -3.826050043 -1.162850022 2.914089918
lowerneck  -10.35999966 5.531809807 -5.608310223
upperneck  4.846049786 8.090740204 0.5970749855
head  3.131099939 3.919029951 1.636379957
lclavicle  0 -9.442270133e-015 7.951389973e-016
lhumerus  -7.713129997 -11.85140038 85.42030334
lradius  2.680841155e-031 -2.298246014e-031 139.3939972
lwrist  -1.412450015e-030 1.765562519e-031 10.4428997
lhand  -1.496451383e-031 -27.76390076 20.11240005
lfingers  90 7.125020027 -90
lthumb  89.89689403 5.08795885 91.16245106
rclavicle  0 -9.442270133e-015 7.951389973e-016
rhumerus  -34.36149979 14.73729992 -60.03490067
rradius  -2.591980261e-031 2.398016339e-031 137.2259979
rwrist  1.412450015e-030 -1.765562519e-031 -4.921959877
rhand  -7.920061211e-032 -33.2840004 9.303460121
rfingers  -90 -7.125020027 -90
rthumb  -92.93752616 -24.25625642 -97.11982154
rfemur  7.098780155 20.15600014 17.98660088
rtibia  -0 0 49.80329895
rfoot  -0 7.284049988 12.10639954
rtoes  5.373923086 19.29304026 -105.8922705
lfemur  -42.01919937 -4.229949951 5.623280048
ltibia  -0 0 53.67100143
lfoot  -0 5.586110115 -11.42380047
ltoes  -4.250644065 -19.5611806 -102.515957
150
root  0.7075910962 37.09444361 4.65433316 3.830993652 -41.49699402 -6.649993896
lowerback  10.96030045 -1.539520025 -3.155539989
upperback  1.816280007 -2.399070024 0.8270310163
thorax  -4.077680111 -1.15241003 2.980639935
lowerneck  -10.2947998 4.439610004 -6.456719875
upperneck  5.081590176 6.646140099 2.041860104
head  3.183710098 3.245510101 2.198410034
lclavicle  0 -9.442270133e-015 7.951389973e-016
lhumerus  -6.720809937 -12.70699978 84.74320221
lradius  2.657480055e-031 -2.325219085e-031 138.8150024
lwrist  -1.412450015e-030 -0 12.04279995
lhand  -1.496451383e-031 -27.76390076 20.11240005
lfingers  90 7.125020027 -90
lthumb  89.89689403 5.08795885 91.16245106
rclavicle  0 -9.442270133e-015 7.951389973e-016
rhumerus  -34.51589966 12.93330002 -58.14160156
rradius  -2.622404277e-031 2.364707137e-031 137.9579926
rwrist  3.531125038e-031 -0 -4.98032999
rhand  -7.920061211e-032 -33.2840004 9.303460121
rfingers  -90 -7.125020027 -90
rthumb  -92.93752616 -24.25625642 -97.11982154
rfemur  7.858789921 19.66570091 19.89089966
rtibia  -0 0 48.38949966
rfoot  -0 10.88650036 14.51589966
rtoes  5.373923086 19.29304026 -105.8922705
lfemur  -44.4015007 -4.439060211 6.086979866
ltibia  -0 0 53.93489838
lfoot  -0 8.828820229 -14.21370029
ltoes  -4.250644065 -19.5611806 -102.515957
151
root  0.4609133315 37.12044363 4.708511247 4.32800293 -38.04299927 -6.981002808
lowerback  10.98799992 -1.423570037 -3.447429895
upperback  1.794860005 -2.294759989 0.4511260092
thorax  -4.127170086 -1.095829964 2.739569902
lowerneck  -10.50080013 3.29817009 -7.148479939
upperneck  5.37582016 5.116459846 3.64151001
head  3.357180119 2.539010048 2.811249971
lclavicle  0 -9.442270133e-015 7.951389973e-016
lhumerus  -5.35586977 -13.85630035 83.75810242
lradius  2.633888294e-031 -2.351909117e-031 138.2369995
lwrist  -7.062250077e-031 -0 13.5152998
lhand  -1.496451383e-031 -27.76390076 20.11240005
lfingers  90 7.125020027 -90
lthumb  89.89689403 5.08795885 91.16245106
rclavicle  0 -9.442270133e-015 7.951389973e-016
rhumerus  -34.11859894 10.81739998 -56.14350128
rradius  -2.642736184e-031 2.341962745e-031 138.4530029
rwrist  1.412450015e-030 -0 -5.08370018
rhand  -7.920061211e-032 -33.2840004 9.303460121
rfingers  -90 -7.125020027 -90
rthumb  -92.93752616 -24.25625642 -97.11982154
rfemur  8.505310059 19.21850014 21.6909008
rtibia  -0 0 47.1568985
rfoot  -0 13.55900002 16.29080009
rtoes  5.373923086 19.29304026 -105.8922705
lfemur  -46.85699844 -4.426509857 6.257309914
ltibia  -0 0 54.32260132
lfoot  -0 12.70059967 -16.14089966
ltoes  -4.250644065 -19.5611806 -102.515957
152
root  0.2189171127 37.1493332 4.783289076 4.546005249 -34.78700256 -6.93699646
lowerback  11.08609962 -1.280750036 -3.89015007
upperback  1.827909946 -2.18144989 -0.02985329926
thorax  -4.157430172 -1.03512001 2.473520041
lowerneck  -10.43710041 2.202280045 -8.022509575
upperneck  5.741030216 3.610690117 5.629129887
head  3.15060997 1.878919959 3.210160017
lclavicle  0 -9.442270133e-015 7.951389973e-016
lhumerus  -4.101900101 -15.07759953 82.71269989
lradius  2.617901162e-031 -2.369691444e-031 137.848999
lwrist  -7.062250077e-031 -0 14.50189972
lhand  -1.496451383e-031 -27.76390076 20.11240005
lfingers  90 7.125020027 -90
lthumb  89.89689403 5.08795885 91.16245106
rclavicle  0 -9.442270133e-015 7.951389973e-016
rhumerus  -33.03749847 8.884860039 -53.91719818
rradius  -2.647553667e-031 2.336515272e-031 138.5709991
rwrist  3.531125038e-031 -1.765562519e-031 -5.037930012
rhand  -7.920061211e-032 -33.2840004 9.303460121
rfingers  -90 -7.125020027 -90
rthumb  -92.93752616 -24.25625642 -97.11982154
rfemur  9.05535984 18.48749924 23.06719971
rtibia  -0 0 46.31340027
rfoot  -0 14.35789967 17.99860001
rtoes  5.373923086 19.29304026 -105.8922705
lfemur  -49.20090103 -4.203070164 5.829490185
ltibia  -0 0 54.84030151
lfoot  -0 16.37249947 -17.51880074
ltoes  -4.250644065 -19.5611806 -102.515957
